<mxfile host="app.diagrams.net" modified="2024-05-01T15:11:27.914Z" agent="Mozilla/5.0 (Windows NT 10.0; Win64; x64) AppleWebKit/537.36 (KHTML, like Gecko) Chrome/124.0.0.0 Safari/537.36" etag="0DZu-vU08e4IVg-bFBDy" version="24.3.1" type="device" pages="2">
  <diagram name="Page-1" id="sozUxEgvxsSywkQ3Toh8">
    <mxGraphModel dx="2954" dy="1106" grid="1" gridSize="10" guides="1" tooltips="1" connect="1" arrows="1" fold="1" page="1" pageScale="1" pageWidth="827" pageHeight="1169" math="0" shadow="0">
      <root>
        <mxCell id="0" />
        <mxCell id="1" parent="0" />
        <mxCell id="lau9q9BP4wEawEPgRQ36-7" style="edgeStyle=orthogonalEdgeStyle;rounded=0;orthogonalLoop=1;jettySize=auto;html=1;" edge="1" parent="1" source="lau9q9BP4wEawEPgRQ36-1" target="lau9q9BP4wEawEPgRQ36-2">
          <mxGeometry relative="1" as="geometry" />
        </mxCell>
        <mxCell id="lau9q9BP4wEawEPgRQ36-13" value="OAI" style="edgeLabel;html=1;align=center;verticalAlign=middle;resizable=0;points=[];" vertex="1" connectable="0" parent="lau9q9BP4wEawEPgRQ36-7">
          <mxGeometry x="-0.1429" relative="1" as="geometry">
            <mxPoint as="offset" />
          </mxGeometry>
        </mxCell>
        <mxCell id="lau9q9BP4wEawEPgRQ36-1" value="CloudFront" style="sketch=0;points=[[0,0,0],[0.25,0,0],[0.5,0,0],[0.75,0,0],[1,0,0],[0,1,0],[0.25,1,0],[0.5,1,0],[0.75,1,0],[1,1,0],[0,0.25,0],[0,0.5,0],[0,0.75,0],[1,0.25,0],[1,0.5,0],[1,0.75,0]];outlineConnect=0;fontColor=#232F3E;fillColor=#8C4FFF;strokeColor=#ffffff;dashed=0;verticalLabelPosition=bottom;verticalAlign=top;align=center;html=1;fontSize=12;fontStyle=0;aspect=fixed;shape=mxgraph.aws4.resourceIcon;resIcon=mxgraph.aws4.cloudfront;" vertex="1" parent="1">
          <mxGeometry x="370" y="200" width="78" height="78" as="geometry" />
        </mxCell>
        <mxCell id="lau9q9BP4wEawEPgRQ36-2" value="S3 web hosting" style="sketch=0;points=[[0,0,0],[0.25,0,0],[0.5,0,0],[0.75,0,0],[1,0,0],[0,1,0],[0.25,1,0],[0.5,1,0],[0.75,1,0],[1,1,0],[0,0.25,0],[0,0.5,0],[0,0.75,0],[1,0.25,0],[1,0.5,0],[1,0.75,0]];outlineConnect=0;fontColor=#232F3E;fillColor=#7AA116;strokeColor=#ffffff;dashed=0;verticalLabelPosition=bottom;verticalAlign=top;align=center;html=1;fontSize=12;fontStyle=0;aspect=fixed;shape=mxgraph.aws4.resourceIcon;resIcon=mxgraph.aws4.s3;" vertex="1" parent="1">
          <mxGeometry x="560" y="200" width="78" height="78" as="geometry" />
        </mxCell>
        <mxCell id="lau9q9BP4wEawEPgRQ36-3" value="SPA" style="image;aspect=fixed;html=1;points=[];align=center;fontSize=12;image=img/lib/azure2/general/Website_Staging.svg;" vertex="1" parent="1">
          <mxGeometry x="710" y="208" width="64" height="70" as="geometry" />
        </mxCell>
        <mxCell id="lau9q9BP4wEawEPgRQ36-4" value="WAF" style="sketch=0;points=[[0,0,0],[0.25,0,0],[0.5,0,0],[0.75,0,0],[1,0,0],[0,1,0],[0.25,1,0],[0.5,1,0],[0.75,1,0],[1,1,0],[0,0.25,0],[0,0.5,0],[0,0.75,0],[1,0.25,0],[1,0.5,0],[1,0.75,0]];outlineConnect=0;fontColor=#232F3E;fillColor=#DD344C;strokeColor=#ffffff;dashed=0;verticalLabelPosition=bottom;verticalAlign=top;align=center;html=1;fontSize=12;fontStyle=0;aspect=fixed;shape=mxgraph.aws4.resourceIcon;resIcon=mxgraph.aws4.waf;" vertex="1" parent="1">
          <mxGeometry x="370" y="380" width="78" height="78" as="geometry" />
        </mxCell>
        <mxCell id="lau9q9BP4wEawEPgRQ36-6" style="edgeStyle=orthogonalEdgeStyle;rounded=0;orthogonalLoop=1;jettySize=auto;html=1;" edge="1" parent="1" source="lau9q9BP4wEawEPgRQ36-5" target="lau9q9BP4wEawEPgRQ36-1">
          <mxGeometry relative="1" as="geometry" />
        </mxCell>
        <mxCell id="lau9q9BP4wEawEPgRQ36-16" value="visits" style="edgeLabel;html=1;align=center;verticalAlign=middle;resizable=0;points=[];" vertex="1" connectable="0" parent="lau9q9BP4wEawEPgRQ36-6">
          <mxGeometry x="-0.0456" y="-1" relative="1" as="geometry">
            <mxPoint as="offset" />
          </mxGeometry>
        </mxCell>
        <mxCell id="lau9q9BP4wEawEPgRQ36-5" value="User" style="sketch=0;outlineConnect=0;fontColor=#232F3E;gradientColor=none;fillColor=#232F3D;strokeColor=none;dashed=0;verticalLabelPosition=bottom;verticalAlign=top;align=center;html=1;fontSize=12;fontStyle=0;aspect=fixed;pointerEvents=1;shape=mxgraph.aws4.user;" vertex="1" parent="1">
          <mxGeometry x="110" y="200" width="78" height="78" as="geometry" />
        </mxCell>
        <mxCell id="lau9q9BP4wEawEPgRQ36-8" style="edgeStyle=orthogonalEdgeStyle;rounded=0;orthogonalLoop=1;jettySize=auto;html=1;entryX=-0.016;entryY=0.443;entryDx=0;entryDy=0;entryPerimeter=0;" edge="1" parent="1" source="lau9q9BP4wEawEPgRQ36-2" target="lau9q9BP4wEawEPgRQ36-3">
          <mxGeometry relative="1" as="geometry" />
        </mxCell>
        <mxCell id="lau9q9BP4wEawEPgRQ36-9" style="edgeStyle=orthogonalEdgeStyle;rounded=0;orthogonalLoop=1;jettySize=auto;html=1;entryX=0.5;entryY=0;entryDx=0;entryDy=0;entryPerimeter=0;" edge="1" parent="1" source="lau9q9BP4wEawEPgRQ36-1" target="lau9q9BP4wEawEPgRQ36-4">
          <mxGeometry relative="1" as="geometry" />
        </mxCell>
        <mxCell id="lau9q9BP4wEawEPgRQ36-14" value="IP restriction rules" style="edgeLabel;html=1;align=center;verticalAlign=middle;resizable=0;points=[];" vertex="1" connectable="0" parent="lau9q9BP4wEawEPgRQ36-9">
          <mxGeometry x="-0.0392" y="1" relative="1" as="geometry">
            <mxPoint as="offset" />
          </mxGeometry>
        </mxCell>
        <mxCell id="lau9q9BP4wEawEPgRQ36-10" value="Cloudwatch Logs" style="sketch=0;points=[[0,0,0],[0.25,0,0],[0.5,0,0],[0.75,0,0],[1,0,0],[0,1,0],[0.25,1,0],[0.5,1,0],[0.75,1,0],[1,1,0],[0,0.25,0],[0,0.5,0],[0,0.75,0],[1,0.25,0],[1,0.5,0],[1,0.75,0]];points=[[0,0,0],[0.25,0,0],[0.5,0,0],[0.75,0,0],[1,0,0],[0,1,0],[0.25,1,0],[0.5,1,0],[0.75,1,0],[1,1,0],[0,0.25,0],[0,0.5,0],[0,0.75,0],[1,0.25,0],[1,0.5,0],[1,0.75,0]];outlineConnect=0;fontColor=#232F3E;fillColor=#E7157B;strokeColor=#ffffff;dashed=0;verticalLabelPosition=bottom;verticalAlign=top;align=center;html=1;fontSize=12;fontStyle=0;aspect=fixed;shape=mxgraph.aws4.resourceIcon;resIcon=mxgraph.aws4.cloudwatch_2;" vertex="1" parent="1">
          <mxGeometry x="550" y="530" width="78" height="78" as="geometry" />
        </mxCell>
        <mxCell id="lau9q9BP4wEawEPgRQ36-11" style="edgeStyle=orthogonalEdgeStyle;rounded=0;orthogonalLoop=1;jettySize=auto;html=1;entryX=0.5;entryY=0;entryDx=0;entryDy=0;entryPerimeter=0;" edge="1" parent="1" source="lau9q9BP4wEawEPgRQ36-4" target="lau9q9BP4wEawEPgRQ36-10">
          <mxGeometry relative="1" as="geometry" />
        </mxCell>
        <mxCell id="lau9q9BP4wEawEPgRQ36-12" value="Store WAF logs" style="edgeLabel;html=1;align=center;verticalAlign=middle;resizable=0;points=[];" vertex="1" connectable="0" parent="lau9q9BP4wEawEPgRQ36-11">
          <mxGeometry x="0.3968" y="-1" relative="1" as="geometry">
            <mxPoint as="offset" />
          </mxGeometry>
        </mxCell>
      </root>
    </mxGraphModel>
  </diagram>
  <diagram id="UkPuWxaF6i30jXbC4Ybs" name="Page-2">
    <mxGraphModel dx="2954" dy="1106" grid="1" gridSize="10" guides="1" tooltips="1" connect="1" arrows="1" fold="1" page="1" pageScale="1" pageWidth="827" pageHeight="1169" math="0" shadow="0">
      <root>
        <mxCell id="0" />
        <mxCell id="1" parent="0" />
        <mxCell id="f2GFftimej6GvKsWm2-P-11" style="edgeStyle=orthogonalEdgeStyle;rounded=0;orthogonalLoop=1;jettySize=auto;html=1;entryX=0;entryY=0.5;entryDx=0;entryDy=0;" edge="1" parent="1" source="f2GFftimej6GvKsWm2-P-1" target="f2GFftimej6GvKsWm2-P-4">
          <mxGeometry relative="1" as="geometry" />
        </mxCell>
        <mxCell id="f2GFftimej6GvKsWm2-P-1" value="Github Actions" style="dashed=0;outlineConnect=0;html=1;align=center;labelPosition=center;verticalLabelPosition=bottom;verticalAlign=top;shape=mxgraph.weblogos.github" vertex="1" parent="1">
          <mxGeometry x="180" y="220.5" width="75" height="75" as="geometry" />
        </mxCell>
        <mxCell id="f2GFftimej6GvKsWm2-P-2" value="AWS&lt;div&gt;Integration environment&lt;/div&gt;" style="points=[[0,0],[0.25,0],[0.5,0],[0.75,0],[1,0],[1,0.25],[1,0.5],[1,0.75],[1,1],[0.75,1],[0.5,1],[0.25,1],[0,1],[0,0.75],[0,0.5],[0,0.25]];outlineConnect=0;gradientColor=none;html=1;whiteSpace=wrap;fontSize=12;fontStyle=0;container=1;pointerEvents=0;collapsible=0;recursiveResize=0;shape=mxgraph.aws4.group;grIcon=mxgraph.aws4.group_account;strokeColor=#CD2264;fillColor=none;verticalAlign=top;align=left;spacingLeft=30;fontColor=#CD2264;dashed=0;" vertex="1" parent="1">
          <mxGeometry x="1370" y="193" width="130" height="130" as="geometry" />
        </mxCell>
        <mxCell id="f2GFftimej6GvKsWm2-P-15" style="edgeStyle=orthogonalEdgeStyle;rounded=0;orthogonalLoop=1;jettySize=auto;html=1;" edge="1" parent="1" source="f2GFftimej6GvKsWm2-P-4" target="f2GFftimej6GvKsWm2-P-5">
          <mxGeometry relative="1" as="geometry" />
        </mxCell>
        <mxCell id="f2GFftimej6GvKsWm2-P-4" value="AWS&amp;nbsp;&lt;div&gt;Integration&amp;nbsp;&lt;div&gt;&lt;span style=&quot;background-color: initial;&quot;&gt;environment&lt;/span&gt;&lt;br&gt;&lt;/div&gt;&lt;/div&gt;" style="points=[[0,0],[0.25,0],[0.5,0],[0.75,0],[1,0],[1,0.25],[1,0.5],[1,0.75],[1,1],[0.75,1],[0.5,1],[0.25,1],[0,1],[0,0.75],[0,0.5],[0,0.25]];outlineConnect=0;gradientColor=none;html=1;whiteSpace=wrap;fontSize=12;fontStyle=0;container=1;pointerEvents=0;collapsible=0;recursiveResize=0;shape=mxgraph.aws4.group;grIcon=mxgraph.aws4.group_account;strokeColor=#CD2264;fillColor=none;verticalAlign=top;align=left;spacingLeft=30;fontColor=#CD2264;dashed=0;" vertex="1" parent="1">
          <mxGeometry x="490" y="193" width="130" height="130" as="geometry" />
        </mxCell>
        <mxCell id="f2GFftimej6GvKsWm2-P-20" style="edgeStyle=orthogonalEdgeStyle;rounded=0;orthogonalLoop=1;jettySize=auto;html=1;entryX=0;entryY=0.5;entryDx=0;entryDy=0;" edge="1" parent="1" source="f2GFftimej6GvKsWm2-P-5" target="f2GFftimej6GvKsWm2-P-2">
          <mxGeometry relative="1" as="geometry" />
        </mxCell>
        <mxCell id="f2GFftimej6GvKsWm2-P-21" value="Approve and promote to production" style="edgeLabel;html=1;align=center;verticalAlign=middle;resizable=0;points=[];" vertex="1" connectable="0" parent="f2GFftimej6GvKsWm2-P-20">
          <mxGeometry x="0.0667" y="1" relative="1" as="geometry">
            <mxPoint as="offset" />
          </mxGeometry>
        </mxCell>
        <mxCell id="f2GFftimej6GvKsWm2-P-5" value="AWS&lt;div&gt;Development&lt;/div&gt;&lt;div&gt;environment&lt;/div&gt;" style="points=[[0,0],[0.25,0],[0.5,0],[0.75,0],[1,0],[1,0.25],[1,0.5],[1,0.75],[1,1],[0.75,1],[0.5,1],[0.25,1],[0,1],[0,0.75],[0,0.5],[0,0.25]];outlineConnect=0;gradientColor=none;html=1;whiteSpace=wrap;fontSize=12;fontStyle=0;container=1;pointerEvents=0;collapsible=0;recursiveResize=0;shape=mxgraph.aws4.group;grIcon=mxgraph.aws4.group_account;strokeColor=#CD2264;fillColor=none;verticalAlign=top;align=left;spacingLeft=30;fontColor=#CD2264;dashed=0;" vertex="1" parent="1">
          <mxGeometry x="970" y="193" width="130" height="130" as="geometry" />
        </mxCell>
        <mxCell id="f2GFftimej6GvKsWm2-P-12" value="Pull request" style="shape=image;html=1;verticalAlign=top;verticalLabelPosition=bottom;labelBackgroundColor=#ffffff;imageAspect=0;aspect=fixed;image=https://cdn0.iconfinder.com/data/icons/phosphor-fill-vol-3/256/git-merge-fill-128.png" vertex="1" parent="1">
          <mxGeometry x="320" y="230" width="128" height="128" as="geometry" />
        </mxCell>
        <mxCell id="f2GFftimej6GvKsWm2-P-14" value="CDK deploy infrastructure in an AWS integration environment" style="rounded=1;whiteSpace=wrap;html=1;" vertex="1" parent="1">
          <mxGeometry x="460" y="295.5" width="240" height="110" as="geometry" />
        </mxCell>
        <mxCell id="f2GFftimej6GvKsWm2-P-17" value="CDK deploy infrastructure in an AWS development environment" style="rounded=1;whiteSpace=wrap;html=1;" vertex="1" parent="1">
          <mxGeometry x="940" y="290" width="240" height="110" as="geometry" />
        </mxCell>
        <mxCell id="f2GFftimej6GvKsWm2-P-18" value="Merged pull request" style="shape=image;html=1;verticalAlign=top;verticalLabelPosition=bottom;labelBackgroundColor=#ffffff;imageAspect=0;aspect=fixed;image=https://cdn0.iconfinder.com/data/icons/phosphor-fill-vol-3/256/git-merge-fill-128.png" vertex="1" parent="1">
          <mxGeometry x="780" y="220.5" width="128" height="128" as="geometry" />
        </mxCell>
        <mxCell id="f2GFftimej6GvKsWm2-P-22" value="CDK deploy infrastructure in an AWS production environment" style="rounded=1;whiteSpace=wrap;html=1;" vertex="1" parent="1">
          <mxGeometry x="1320" y="290" width="240" height="110" as="geometry" />
        </mxCell>
      </root>
    </mxGraphModel>
  </diagram>
</mxfile>
